<mxfile host="app.diagrams.net" modified="2024-01-08T07:57:17.897Z" agent="Mozilla/5.0 (Windows NT 10.0; Win64; x64) AppleWebKit/537.36 (KHTML, like Gecko) Chrome/120.0.0.0 Safari/537.36" etag="axlXPhsfazXfxtnQ3u8c" version="22.1.17" type="github">
  <diagram name="第 1 页" id="isn4C9pcCna46gxJ0_0Z">
    <mxGraphModel dx="1434" dy="841" grid="1" gridSize="10" guides="1" tooltips="1" connect="1" arrows="1" fold="1" page="1" pageScale="1" pageWidth="827" pageHeight="1169" math="0" shadow="0">
      <root>
        <mxCell id="0" />
        <mxCell id="1" parent="0" />
        <mxCell id="mkLRYhd85x5uy7ZgSMGF-22" value="" style="group" vertex="1" connectable="0" parent="1">
          <mxGeometry x="160" y="160" width="450" height="350" as="geometry" />
        </mxCell>
        <mxCell id="mkLRYhd85x5uy7ZgSMGF-20" value="" style="rounded=0;whiteSpace=wrap;html=1;verticalAlign=top;fillColor=#d0cee2;strokeColor=#56517e;" vertex="1" parent="mkLRYhd85x5uy7ZgSMGF-22">
          <mxGeometry x="250" width="200" height="350" as="geometry" />
        </mxCell>
        <mxCell id="mkLRYhd85x5uy7ZgSMGF-18" value="" style="rounded=0;whiteSpace=wrap;html=1;verticalAlign=top;fillColor=#d0cee2;strokeColor=#56517e;" vertex="1" parent="mkLRYhd85x5uy7ZgSMGF-22">
          <mxGeometry width="210" height="350" as="geometry" />
        </mxCell>
        <mxCell id="mkLRYhd85x5uy7ZgSMGF-1" value="g-parent" style="rounded=1;whiteSpace=wrap;html=1;fillColor=#fff2cc;strokeColor=#d6b656;" vertex="1" parent="mkLRYhd85x5uy7ZgSMGF-22">
          <mxGeometry x="30" y="30" width="120" height="50" as="geometry" />
        </mxCell>
        <mxCell id="mkLRYhd85x5uy7ZgSMGF-2" value="parent" style="rounded=1;whiteSpace=wrap;html=1;fillColor=#fff2cc;strokeColor=#d6b656;" vertex="1" parent="mkLRYhd85x5uy7ZgSMGF-22">
          <mxGeometry x="30" y="160" width="120" height="50" as="geometry" />
        </mxCell>
        <mxCell id="mkLRYhd85x5uy7ZgSMGF-3" value="" style="edgeStyle=orthogonalEdgeStyle;rounded=0;orthogonalLoop=1;jettySize=auto;html=1;" edge="1" parent="mkLRYhd85x5uy7ZgSMGF-22" source="mkLRYhd85x5uy7ZgSMGF-1" target="mkLRYhd85x5uy7ZgSMGF-2">
          <mxGeometry relative="1" as="geometry" />
        </mxCell>
        <mxCell id="mkLRYhd85x5uy7ZgSMGF-4" value="child" style="rounded=1;whiteSpace=wrap;html=1;fillColor=#fff2cc;strokeColor=#d6b656;" vertex="1" parent="mkLRYhd85x5uy7ZgSMGF-22">
          <mxGeometry x="30" y="290" width="120" height="50" as="geometry" />
        </mxCell>
        <mxCell id="mkLRYhd85x5uy7ZgSMGF-5" value="" style="edgeStyle=orthogonalEdgeStyle;rounded=0;orthogonalLoop=1;jettySize=auto;html=1;" edge="1" parent="mkLRYhd85x5uy7ZgSMGF-22" source="mkLRYhd85x5uy7ZgSMGF-2" target="mkLRYhd85x5uy7ZgSMGF-4">
          <mxGeometry relative="1" as="geometry" />
        </mxCell>
        <mxCell id="mkLRYhd85x5uy7ZgSMGF-7" value="g-parent" style="rounded=1;whiteSpace=wrap;html=1;fillColor=#fff2cc;strokeColor=#d6b656;" vertex="1" parent="mkLRYhd85x5uy7ZgSMGF-22">
          <mxGeometry x="260" y="30" width="120" height="50" as="geometry" />
        </mxCell>
        <mxCell id="mkLRYhd85x5uy7ZgSMGF-9" value="parent" style="rounded=1;whiteSpace=wrap;html=1;fillColor=#fff2cc;strokeColor=#d6b656;" vertex="1" parent="mkLRYhd85x5uy7ZgSMGF-22">
          <mxGeometry x="260" y="160" width="120" height="50" as="geometry" />
        </mxCell>
        <mxCell id="mkLRYhd85x5uy7ZgSMGF-6" value="" style="edgeStyle=orthogonalEdgeStyle;rounded=0;orthogonalLoop=1;jettySize=auto;html=1;" edge="1" parent="mkLRYhd85x5uy7ZgSMGF-22" source="mkLRYhd85x5uy7ZgSMGF-7" target="mkLRYhd85x5uy7ZgSMGF-9">
          <mxGeometry relative="1" as="geometry" />
        </mxCell>
        <mxCell id="mkLRYhd85x5uy7ZgSMGF-10" value="child" style="rounded=1;whiteSpace=wrap;html=1;fillColor=#fff2cc;strokeColor=#d6b656;" vertex="1" parent="mkLRYhd85x5uy7ZgSMGF-22">
          <mxGeometry x="260" y="290" width="120" height="50" as="geometry" />
        </mxCell>
        <mxCell id="mkLRYhd85x5uy7ZgSMGF-8" value="" style="edgeStyle=orthogonalEdgeStyle;rounded=0;orthogonalLoop=1;jettySize=auto;html=1;" edge="1" parent="mkLRYhd85x5uy7ZgSMGF-22" source="mkLRYhd85x5uy7ZgSMGF-9" target="mkLRYhd85x5uy7ZgSMGF-10">
          <mxGeometry relative="1" as="geometry" />
        </mxCell>
        <mxCell id="mkLRYhd85x5uy7ZgSMGF-11" value="" style="shape=flexArrow;endArrow=classic;html=1;rounded=0;fillColor=#f5f5f5;strokeColor=#666666;" edge="1" parent="mkLRYhd85x5uy7ZgSMGF-22">
          <mxGeometry width="50" height="50" relative="1" as="geometry">
            <mxPoint x="180" y="50" as="sourcePoint" />
            <mxPoint x="180" y="320" as="targetPoint" />
          </mxGeometry>
        </mxCell>
        <mxCell id="mkLRYhd85x5uy7ZgSMGF-12" value="" style="shape=flexArrow;endArrow=classic;html=1;rounded=0;fillColor=#f5f5f5;strokeColor=#666666;" edge="1" parent="mkLRYhd85x5uy7ZgSMGF-22">
          <mxGeometry width="50" height="50" relative="1" as="geometry">
            <mxPoint x="420" y="320" as="sourcePoint" />
            <mxPoint x="420" y="50" as="targetPoint" />
          </mxGeometry>
        </mxCell>
        <mxCell id="mkLRYhd85x5uy7ZgSMGF-13" value="捕捉" style="text;html=1;align=center;verticalAlign=middle;resizable=0;points=[];autosize=1;strokeColor=none;fillColor=none;fontSize=19;fontColor=#FF99CC;" vertex="1" parent="mkLRYhd85x5uy7ZgSMGF-22">
          <mxGeometry x="150" y="20" width="60" height="40" as="geometry" />
        </mxCell>
        <mxCell id="mkLRYhd85x5uy7ZgSMGF-21" value="冒泡" style="text;html=1;align=center;verticalAlign=middle;resizable=0;points=[];autosize=1;strokeColor=none;fillColor=none;fontSize=19;fontColor=#FF99CC;" vertex="1" parent="mkLRYhd85x5uy7ZgSMGF-22">
          <mxGeometry x="390" y="20" width="60" height="40" as="geometry" />
        </mxCell>
      </root>
    </mxGraphModel>
  </diagram>
</mxfile>
